#!OML:ASF Y:\EmotionMaleHayes\Project 1\Capture day 1\Session 1\Male1.ASF
:FULLY-SPECIFIED
:DEGREES
140
root -29.239 17.1128 1.27744 21.8652 85.2333 22.2329
lowerback 6.65497 2.10193 -4.1878
upperback -1.72025 2.40602 -0.79892
thorax -5.67091 1.31946 1.2378
lowerneck -20.7966 2.68047 5.11389
upperneck 20.8441 2.55567 -1.48612
head 10.1814 1.4492 -0.987513
rclavicle 6.1499e-015 5.96354e-016
rhumerus -37.2661 7.78006 -94.1303
rradius 29.6511
rwrist 4.90998
rhand -10.4334 -31.4494
rfingers 7.12502
rthumb 15.5663 -60.843
lclavicle 6.1499e-015 5.96354e-016
lhumerus -35.1207 -8.36614 92.5351
lradius 22.9508
lwrist -15.4244
lhand -17.6674 -26.0908
lfingers 7.12502
lthumb 8.59132 3.71444
rfemur 7.94671 -4.46854 11.3927
rtibia 3.02103
rfoot -15.7235 -2.34923
rtoes 1.41298
lfemur 12.1177 -0.825245 -17.3049
ltibia -2.49668
lfoot -12.4121 13.4047
ltoes -3.437
141
root -29.2378 17.1131 1.27822 22.7667 85.1818 23.1657
lowerback 6.66036 2.10428 -4.35151
upperback -1.70736 2.39617 -0.775284
thorax -5.66847 1.32041 1.35507
lowerneck -20.793 2.73869 5.04005
upperneck 20.8285 2.65132 -1.44949
head 10.1768 1.49136 -0.948164
rclavicle -8.75274e-015 5.76476e-015
rhumerus -37.291 7.83936 -94.0831
rradius 29.6523
rwrist 5.04261
rhand -10.3016 -31.7815
rfingers 7.12502
rthumb 15.6932 -61.1651
lclavicle -8.75274e-015 5.76476e-015
lhumerus -35.0462 -8.11836 92.4643
lradius 22.876
lwrist -15.6904
lhand -17.4161 -26.2734
lfingers 7.12502
lthumb 8.83387 3.52167
rfemur 7.99177 -4.43659 11.2963
rtibia 3.01484
rfoot -15.7514 -2.39402
rtoes 1.0048
lfemur 12.0877 -0.563468 -17.3293
ltibia -2.34411
lfoot -12.2288 13.155
ltoes -4.27017
142
root -29.2374 17.1132 1.27783 23.2462 85.2213 23.6637
lowerback 6.7062 2.0766 -4.33617
upperback -1.71803 2.35679 -0.797438
thorax -5.70182 1.30076 1.32626
lowerneck -20.7244 2.73414 5.12036
upperneck 20.7576 2.63471 -1.50101
head 10.1401 1.48335 -0.982819
rclavicle 1.82633e-015 3.18055e-015
rhumerus -37.3009 7.83326 -94.1124
rradius 29.6398
rwrist 5.16236
rhand -10.1418 -32.1767
rfingers 7.12502
rthumb 15.8471 -61.5482
lclavicle 1.82633e-015 3.18055e-015
lhumerus -35.063 -8.1314 92.4185
lradius 22.913
lwrist -15.6373
lhand -16.9167 -26.448
lfingers 7.12502
lthumb 9.31568 3.32617
rfemur 8.05416 -4.35523 11.3075
rtibia 2.96724
rfoot -15.7937 -2.58738
rtoes 0.293866
lfemur 12.0368 -0.355399 -17.276
ltibia -2.18293
lfoot -12.1788 12.9073
ltoes -4.70793
143
root -29.2382 17.1137 1.2771 22.4753 85.2075 22.9229
lowerback 6.77729 2.09375 -4.21511
upperback -1.72776 2.38519 -0.816433
thorax -5.74786 1.31096 1.23264
lowerneck -20.7657 2.71391 5.13925
upperneck 20.839 2.60149 -1.50684
head 10.1762 1.47001 -0.992457
rclavicle -3.55265e-014 2.16675e-014
rhumerus -37.3384 7.85108 -94.1739
rradius 29.6673
rwrist 5.16132
rhand -10.1698 -32.2243
rfingers 7.12502
rthumb 15.8201 -61.5979
lclavicle -3.55265e-014 2.16675e-014
lhumerus -35.1111 -8.29931 92.4272
lradius 22.9657
lwrist -15.5127
lhand -16.5569 -26.3764
lfingers 7.12502
lthumb 9.66288 3.38195
rfemur 8.071 -4.30172 11.3773
rtibia 2.9762
rfoot -15.8162 -2.62932
rtoes -0.0717724
lfemur 12.0861 -0.469094 -17.2546
ltibia -2.21474
lfoot -12.2761 13.0629
ltoes -4.49788
144
root -29.2391 17.1136 1.27822 22.7556 85.1451 23.2511
lowerback 6.81868 2.11914 -4.3188
upperback -1.71318 2.40944 -0.786098
thorax -5.76362 1.32697 1.31798
lowerneck -20.8009 2.70148 5.14838
upperneck 20.942 2.60957 -1.61719
head 10.2216 1.46243 -1.0316
rclavicle -6.15922e-015 -1.07344e-014
rhumerus -37.421 7.99986 -94.1679
rradius 29.7532
rwrist 5.1475
rhand -10.1842 -32.2669
rfingers 7.12502
rthumb 15.8062 -61.6416
lclavicle -6.15922e-015 -1.07344e-014
lhumerus -35.0662 -8.22975 92.4482
lradius 22.8894
lwrist -15.6083
lhand -16.4733 -26.3967
lfingers 7.12502
lthumb 9.74349 3.3579
rfemur 8.08559 -4.31071 11.3
rtibia 3.02272
rfoot -15.8002 -2.54217
rtoes 0.295442
lfemur 12.1274 -0.460752 -17.3054
ltibia -2.21514
lfoot -12.2709 13.0979
ltoes -4.6782
145
root -29.2379 17.1127 1.27817 25.2444 85.0775 25.7694
lowerback 6.80068 2.11512 -4.59596
upperback -1.68511 2.38102 -0.801731
thorax -5.73419 1.32164 1.46118
lowerneck -20.846 2.73684 5.11463
upperneck 21.0286 2.68656 -1.68502
head 10.2642 1.48771 -1.03823
rclavicle 1.23806e-014 -1.98785e-016
rhumerus -37.4724 8.18287 -94.1614
rradius 29.829
rwrist 5.03329
rhand -10.185 -32.1723
rfingers 7.12502
rthumb 15.8055 -61.547
lclavicle 1.23806e-014 -1.98785e-016
lhumerus -34.957 -8.14942 92.4582
lradius 22.743
lwrist -15.6828
lhand -16.4139 -26.4662
lfingers 7.12502
lthumb 9.8008 3.28571
rfemur 8.11262 -4.41427 10.9824
rtibia 3.05839
rfoot -15.813 -2.46858
rtoes 0.64424
lfemur 12.1267 -0.35526 -17.5574
ltibia -2.14828
lfoot -12.2851 12.9828
ltoes -4.73033
